<?xml version="1.0" encoding="UTF-8" standalone="no"?>
<!-- Created with Inkscape (http://www.inkscape.org/) -->

<svg
   width="500mm"
   height="500mm"
   viewBox="0 0 500 500"
   version="1.1"
   id="svg1"
   xml:space="preserve"
   xmlns="http://www.w3.org/2000/svg"
   xmlns:svg="http://www.w3.org/2000/svg"><defs
     id="defs1" /><g
     id="layer1"
     style="display:inline"><g
       style="fill:none;stroke:#000000;stroke-width:0.111147;stroke-dasharray:none;stroke-opacity:0.118072"
       id="g11"
       transform="matrix(14.157073,0,0,15.870439,73.136452,78.458772)"><path
         d="M 5.16602,1.18915 H 19.8357 V 21.6828 h -3.904 V 4.83599 H 9.10949 V 21.6828 H 5.16602 Z"
         fill="#ff5050"
         id="path1"
         style="fill:#ff2a2a;fill-opacity:1;stroke:#000000;stroke-width:0.111147;stroke-dasharray:none;stroke-opacity:0.118072" /><path
         d="m 0,0 c 2.68156,1.03063 7.13769,2.37838 12.698,2.33874 5.3631,0 9.6615,-1.26847 12.3036,-2.2594608 z"
         fill="#000000"
         id="path2"
         style="stroke:#000000;stroke-width:0.111147;stroke-dasharray:none;stroke-opacity:0.118072" /><path
         d="m 2.08984,6.10455 c 1.85344,0.07928 3.58857,0.27748 5.32369,0.3964 1.73513,0.11892 3.39137,0.15856 5.08707,0.1982 1.6957,0 3.3914,-0.03964 5.0871,-0.15856 1.7351,-0.07928 3.4703,-0.27748 5.3237,-0.31712 -1.4591,1.18919 -3.1548,1.94234 -4.9294,2.4973 -1.7745,0.51531 -3.628,0.79279 -5.4814,0.79279 -1.8534,0 -3.70685,-0.27748 -5.48141,-0.83243 C 5.24462,8.04689 3.54893,7.2541 2.08984,6.10455 Z"
         fill="#ff5050"
         id="path3"
         style="fill:#ff2a2a;stroke:#000000;stroke-width:0.111147;stroke-dasharray:none;stroke-opacity:0.118072" /></g></g></svg>
