<?xml version="1.0" encoding="UTF-8" standalone="no"?>
<!-- Created with Inkscape (http://www.inkscape.org/) -->

<svg
   width="400mm"
   height="100mm"
   viewBox="0 0 400 100"
   version="1.1"
   id="svg1"
   xml:space="preserve"
   inkscape:version="1.3.2 (091e20e, 2023-11-25)"
   sodipodi:docname="poliglotim_login.svg"
   xmlns:inkscape="http://www.inkscape.org/namespaces/inkscape"
   xmlns:sodipodi="http://sodipodi.sourceforge.net/DTD/sodipodi-0.dtd"
   xmlns="http://www.w3.org/2000/svg"
   xmlns:svg="http://www.w3.org/2000/svg"><sodipodi:namedview
     id="namedview1"
     pagecolor="#ffffff"
     bordercolor="#000000"
     borderopacity="0.25"
     inkscape:showpageshadow="2"
     inkscape:pageopacity="0.0"
     inkscape:pagecheckerboard="0"
     inkscape:deskcolor="#d1d1d1"
     inkscape:document-units="mm"
     inkscape:zoom="0.2102413"
     inkscape:cx="397.16269"
     inkscape:cy="558.88162"
     inkscape:window-width="1920"
     inkscape:window-height="1052"
     inkscape:window-x="0"
     inkscape:window-y="28"
     inkscape:window-maximized="0"
     inkscape:current-layer="layer1" /><defs
     id="defs1" /><g
     inkscape:label="Слой 1"
     inkscape:groupmode="layer"
     id="layer1"><g
       style="fill:none"
       id="g1"
       transform="matrix(2.442225,0,0,2.2025665,71.013895,9.8166643)"><path
         d="m 24.7449,5.08966 c 1.2512,0 2.4328,0.31591 3.545,0.94773 1.1121,0.63183 1.9809,1.50936 2.5718,2.5624 0.6255,1.08813 0.9383,2.24651 0.9383,3.51011 0,1.2637 -0.3128,2.4571 -0.9383,3.5452 -0.6256,1.0882 -1.4597,1.9657 -2.5371,2.5975 -1.0774,0.6319 -2.259,0.9478 -3.5449,0.9478 -1.9115,0 -3.5449,-0.7021 -4.8656,-2.071 -1.3554,-1.369 -2.0157,-3.0187 -2.0157,-4.9844 0,-2.1061 0.7646,-3.86113 2.2937,-5.23007 1.2512,-1.22855 2.8151,-1.82527 4.5528,-1.82527 z m 0.0348,3.15911 c -1.0426,0 -1.9115,0.35102 -2.5718,1.08814 -0.6951,0.73709 -1.0426,1.64979 -1.0426,2.80809 0,1.1584 0.3475,2.1061 1.0078,2.8432 0.6951,0.7371 1.5292,1.0882 2.5718,1.0882 1.0427,0 1.9115,-0.3511 2.6066,-1.0882 0.6951,-0.7371 1.0426,-1.6848 1.0426,-2.8432 0,-1.1583 -0.3475,-2.071 -1.0079,-2.80809 C 26.7259,8.59979 25.8571,8.24877 24.7797,8.24877 Z"
         fill="#000000"
         id="path1" /><path
         d="M 43.3036,19.2004 H 39.8977 L 36.5613,10.741 33.1902,19.2004 H 29.819 L 35.4839,5.79169 h 2.1548 z"
         fill="#000000"
         id="path2" /><path
         d="M 45.5279,19.2004 H 43.7554 V 5.75659 h 3.2669 v 7.89781 l 6.8118,-7.89781 h 1.5987 V 19.1653 H 52.1659 V 11.443 Z"
         fill="#000000"
         id="path3" /><path
         d="m 79.4479,5.08966 c 1.2511,0 2.4328,0.31591 3.5449,0.94773 1.1121,0.63183 1.981,1.50936 2.5718,2.5624 0.6256,1.08813 0.9384,2.24651 0.9384,3.51011 0,1.2637 -0.3128,2.4571 -0.9384,3.5452 -0.6256,1.0882 -1.4597,1.9657 -2.5371,2.5975 -1.0773,0.6319 -2.259,0.9478 -3.5449,0.9478 -1.9114,0 -3.5449,-0.7021 -4.8655,-2.071 -1.3555,-1.369 -2.0158,-3.0187 -2.0158,-4.9844 0,-2.1061 0.7646,-3.86113 2.2938,-5.23007 1.2859,-1.22855 2.8151,-1.82527 4.5528,-1.82527 z m 0.1737,3.15911 c -1.0426,0 -1.9114,0.35102 -2.5718,1.08814 -0.695,0.73709 -1.0426,1.64979 -1.0426,2.80809 0,1.1584 0.3476,2.1061 1.0079,2.8432 0.6951,0.7371 1.5292,1.0882 2.5718,1.0882 1.0426,0 1.9115,-0.3511 2.6066,-1.0882 0.695,-0.7371 1.0426,-1.6848 1.0426,-2.8432 0,-1.1583 -0.3476,-2.071 -1.0079,-2.80809 C 81.5679,8.59979 80.699,8.24877 79.6216,8.24877 Z"
         fill="#000000"
         id="path4" /><path
         d="M 85.5646,5.75659 H 97.937 V 8.95081 H 93.5233 V 19.1653 H 90.1869 V 8.98591 h -4.6223 z"
         fill="#000000"
         id="path5" /><path
         d="m 38.438,22.9562 -2.7803,1.5445 c -0.5213,-0.5617 -1.0426,-0.9478 -1.5639,-1.1584 -0.5214,-0.2106 -1.1122,-0.3159 -1.8073,-0.3159 -1.2511,0 -2.259,0.3861 -3.0236,1.1233 -0.7298,0.7722 -1.1121,1.7199 -1.1121,2.9134 0,1.1583 0.3823,2.0709 1.1121,2.8081 0.7299,0.7371 1.703,1.0881 2.9194,1.0881 1.4944,0 2.6413,-0.5265 3.4754,-1.5445 l 2.6413,1.8253 c -1.4249,1.8604 -3.4406,2.8081 -6.0472,2.8081 -2.3285,0 -4.1705,-0.702 -5.4912,-2.1061 -1.3206,-1.404 -1.9809,-3.0187 -1.9809,-4.9141 0,-1.2988 0.3127,-2.4922 0.9731,-3.5804 0.6603,-1.0881 1.5292,-1.9656 2.7108,-2.5624 1.1469,-0.6318 2.4328,-0.9477 3.8577,-0.9477 1.3207,0 2.5023,0.2808 3.5449,0.8073 1.0426,0.5265 1.9115,1.2286 2.5718,2.2114 z"
         fill="#000000"
         id="path6" /><path
         d="m 38.7161,20.6044 h 12.3724 v 3.1942 H 46.6748 V 34.0482 H 43.3384 V 23.8337 h -4.6223 z"
         fill="#000000"
         id="path7" /><path
         d="M 51.7836,34.0482 V 20.6044 h 5.3521 c 1.7377,0 2.9541,0.351 3.5797,1.0531 0.6256,0.702 0.9384,1.4742 0.9384,2.3518 0,1.2987 -0.6604,2.2464 -1.9463,2.8432 1.7725,0.5967 2.6413,1.755 2.6413,3.4399 0,0.9126 -0.2432,1.6848 -0.695,2.2816 -0.4518,0.5967 -1.0427,0.9828 -1.7725,1.1934 -0.7298,0.2106 -1.7029,0.2808 -2.9888,0.2808 z M 55.12,25.9047 h 1.2859 c 0.5561,0 0.9731,-0.1404 1.2859,-0.4212 0.3128,-0.2808 0.4518,-0.5967 0.4518,-0.9126 0,-0.4914 -0.139,-0.8776 -0.417,-1.1584 -0.2781,-0.2808 -0.6256,-0.4212 -1.0079,-0.4212 h -0.4171 -1.1121 v 2.9134 z m 0,5.546 h 1.6682 c 0.6603,0 1.1121,-0.1404 1.3902,-0.4563 0.278,-0.3159 0.3822,-0.5967 0.3822,-0.9126 0,-0.4212 -0.139,-0.8425 -0.4518,-1.1935 -0.3127,-0.351 -0.8341,-0.5265 -1.5986,-0.5265 H 55.12 Z"
         fill="#000000"
         id="path8" /><path
         d="M 87.3023,28.2916 H 76.598 c 0.139,0.9477 0.5561,1.72 1.2512,2.2816 0.6603,0.5616 1.5292,0.8424 2.5718,0.8424 1.2511,0 2.3285,-0.4563 3.1974,-1.3338 l 2.815,1.3338 c -0.695,1.018 -1.5291,1.7551 -2.5023,2.2114 -0.9731,0.4563 -2.1547,0.7371 -3.4754,0.7371 -2.0852,0 -3.7882,-0.6669 -5.1088,-2.0008 -1.3207,-1.3338 -1.981,-2.9836 -1.981,-4.9843 0,-2.0359 0.6603,-3.7559 1.9462,-5.0897 1.3207,-1.369 2.9541,-2.0359 4.9351,-2.0359 2.0853,0 3.7882,0.6669 5.1089,2.0359 1.3206,1.3689 1.981,3.124 1.981,5.3705 z M 83.9659,25.659 c -0.2085,-0.7371 -0.6603,-1.3689 -1.3207,-1.8253 -0.6603,-0.4563 -1.3901,-0.702 -2.259,-0.702 -0.9383,0 -1.7377,0.2808 -2.4328,0.7722 -0.4518,0.316 -0.8341,0.9127 -1.2163,1.7551 z"
         fill="#000000"
         id="path9" /><path
         d="m 96.1646,29.0989 4.0664,-8.4594 h 2.189 l 3.337,13.4438 h -3.232 l -1.773,-7.8627 -3.9618,7.8276 h -1.3554 l -3.8577,-7.8978 -1.8073,7.8978 H 86.503 l 3.3364,-13.4438 h 2.1895 z"
         fill="#000000"
         id="path10" /><path
         d="m 68.9869,5.75659 h -2.1548 c -2.0157,4.73871 -3.9967,9.47731 -6.0124,14.21601 1.7029,4.3526 3.4059,8.7402 5.1088,13.0928 l -2.7455,5.897 h 3.4406 c 2.7803,-6.3182 5.5607,-12.6716 8.341,-18.9898 z M 67.701,29.0287 c -1.1469,-3.0187 -2.3285,-6.0374 -3.4754,-9.0912 1.2511,-3.0889 2.4675,-6.1778 3.7187,-9.2316 1.2164,3.0889 2.4327,6.1778 3.6144,9.2316 -1.2859,3.0538 -2.5718,6.0725 -3.8577,9.0912 z"
         fill="#000000"
         id="path11" /><path
         d="M 64.5036,4.00153 V 8.9157 c -1.6682,0 -3.3364,0 -5.0046,0.0351 V 19.1653 H 56.1626 V 5.75659 c 1.7725,0 3.5449,0 5.2827,0 0,-1.71996 0,-1.71996 0,-1.71996 h 3.0583 z"
         fill="#000000"
         id="path12" /><path
         d="M 4.5528,1.05304 H 17.4813 V 19.2004 H 14.0407 V 4.28235 H 8.02821 V 19.2004 H 4.5528 Z"
         fill="#ff5050"
         id="path13" /><path
         d="m 0,0 c 2.36328,0.912633 6.29049,2.10608 11.1908,2.07097 4.7266,0 8.5148,-1.123236 10.8433,-2.0007675 z"
         fill="#000000"
         id="path14" /><path
         d="m 1.84198,5.40558 c 1.63344,0.0702 3.16262,0.24571 4.6918,0.35101 1.52918,0.1053 2.98886,0.14041 4.48332,0.17551 1.4944,0 2.9888,-0.0351 4.4832,-0.14041 1.5292,-0.0702 3.0584,-0.24571 4.6918,-0.28081 -1.2859,1.05304 -2.7803,1.71996 -4.3442,2.21138 -1.564,0.45632 -3.1974,0.70203 -4.8308,0.70203 -1.63348,0 -3.26692,-0.24571 -4.83086,-0.73713 C 4.62231,7.12554 3.12788,6.42351 1.84198,5.40558 Z"
         fill="#ff5050"
         id="path15" /></g></g></svg>
